<?xml version="1.0" encoding="utf-8"?>
<!-- Generator: Adobe Illustrator 21.0.0, SVG Export Plug-In . SVG Version: 6.00 Build 0)  -->
<svg version="1.1" id="Layer_1" xmlns="http://www.w3.org/2000/svg" xmlns:xlink="http://www.w3.org/1999/xlink" x="0px" y="0px"
	 viewBox="0 0 1920 1080" style="enable-background:new 0 0 1920 1080;" xml:space="preserve">
<style type="text/css">
	.st0{fill:#FFFFFF;}
</style>
<g>
	<g>
		<path class="st0" d="M528.6,586.6l-14.7-24h-56.1l-15.1,24H435l48.4-76.3h6.1l46.6,76.3H528.6z M486.4,517.8l-25.2,39.5h49.5
			L486.4,517.8z"/>
		<path class="st0" d="M755.2,549.4c10.4,3.1,15.5,9,15.5,17.9v19.3h-6.6v-19.1c0-10-9.6-15-28.8-15h-41.2v34.1h-6.5v-76.3h49
			c23.7,0,35.6,6.7,35.6,20C772.2,539.7,766.6,546,755.2,549.4z M737,515.6h-42.9V547h40.4c7.9,0,14.5-1,19.9-3
			c7.5-2.8,11.3-7.2,11.3-13.3C765.7,520.7,756.1,515.6,737,515.6z"/>
		<path class="st0" d="M975.1,587.4c-11.9,0-21.6-1.4-29.1-4.2c-11.4-4.2-17.1-11.3-17.1-21.3v-2.7h6.5v2.3
			c0,13.7,13.3,20.6,39.9,20.6c8.3,0,15.5-0.9,21.5-2.6c8.9-2.6,13.4-6.8,13.4-12.6c0-4-1.6-7-4.8-9.1c-2.3-1.5-6.2-2.8-11.7-3.9
			c-2.9-0.7-10.1-1.9-21.6-3.7c-13.1-2-21.8-3.9-26.2-5.5c-9.2-3.4-13.7-8.6-13.7-15.5c0-13.1,13.4-19.6,40.2-19.6
			c28,0,42.1,8.2,42.4,24.5h-6.5c-0.6-8.2-4.9-13.8-12.8-16.5c-5.3-1.8-12.9-2.7-23.1-2.7c-22.4,0-33.5,4.8-33.5,14.3
			c0,4.6,3,8,9.1,10.3c4.1,1.7,11.2,3.2,21.3,4.5c18.3,2.4,30.5,5,36.6,7.7c7.4,3.3,11.1,8.5,11.1,15.6c0,7.6-5.4,13.1-16.2,16.6
			C993.3,586.2,984.7,587.4,975.1,587.4z"/>
		<path class="st0" d="M1259.1,586.6v-37.1h-76.3v37.1h-6.5v-76.3h6.5v34h76.3v-34h6.5v76.3H1259.1z"/>
		<path class="st0" d="M1510.8,586.6l-14.7-24h-56.1l-15.1,24h-7.7l48.4-76.3h6.1l46.6,76.3H1510.8z M1468.6,517.8l-25.2,39.5h49.5
			L1468.6,517.8z"/>
		<path class="st0" d="M1669.9,586.6v-76.3h6.5v71h65v5.3H1669.9z"/>
	</g>
	<g>
		<path class="st0" d="M242,662.3c-3.3,2.3-7.7,3.5-13,3.5c-3.4,0-6.5-0.5-9.3-1.6c-3.2-1.3-5.6-3.2-7.1-5.7v16.3H210v-38.4h2.6v6.6
			c1.5-2.5,3.8-4.4,7.1-5.7c2.8-1.1,5.8-1.6,9.2-1.6c5.4,0,9.7,1.1,13,3.4c3.9,2.7,5.9,6.5,5.9,11.6
			C247.8,655.8,245.9,659.6,242,662.3z M229.3,637.6c-4.5,0-8.3,1-11.4,3c-3.6,2.3-5.4,5.7-5.4,9.9c0,4.6,1.7,8.1,5,10.4
			c2.9,2,6.8,2.9,11.7,2.9c4.6,0,8.3-1,11.2-3.1c3.3-2.3,4.9-5.7,4.9-10s-1.7-7.7-5-10C237.5,638.6,233.9,637.6,229.3,637.6z"/>
		<path class="st0" d="M388.5,643.1c0.9-1.9,2.6-3.5,5.1-4.8c3.3-1.7,7.2-2.6,11.7-2.6v1.9c-5.5,0-9.6,1.4-12.5,4.2
			c-2.9,2.8-4.3,6.7-4.3,11.7v11.4h-2.6v-28.5h2.6V643.1z"/>
		<path class="st0" d="M573.1,662.2c-3.5,2.3-8,3.4-13.4,3.4c-5.3,0-9.8-1.2-13.4-3.5c-4.1-2.7-6.2-6.5-6.2-11.5
			c0-5,2.1-8.9,6.4-11.6c3.6-2.3,8.1-3.4,13.4-3.4c5.3,0,9.8,1.1,13.3,3.4c4.2,2.7,6.3,6.6,6.3,11.6
			C579.5,655.7,577.4,659.5,573.1,662.2z M559.8,637.6c-4.7,0-8.6,1-11.7,2.9c-3.7,2.3-5.5,5.7-5.5,10.1c0,4.4,1.9,7.7,5.6,10.1
			c3.1,2,7,2.9,11.6,2.9c4.6,0,8.5-1,11.6-2.9c3.7-2.3,5.6-5.7,5.6-10.1c0-4.4-1.8-7.8-5.5-10.1
			C568.4,638.6,564.5,637.6,559.8,637.6z"/>
		<path class="st0" d="M750,664.9V658c-3.3,5-8.9,7.5-16.8,7.5c-5.1,0-9.4-1.2-12.8-3.6c-3.9-2.7-5.9-6.5-5.9-11.4
			c0-5,1.9-8.9,5.9-11.6c3.4-2.4,7.8-3.6,13.1-3.6c8,0,13.5,2.5,16.5,7.4v-17.5h2.6v39.7H750z M733.1,637.4c-4.5,0-8.2,1.1-11.2,3.2
			c-3.3,2.4-5,5.8-5,10c0,4.3,1.7,7.6,5,9.9c2.9,2.1,6.6,3.1,11.2,3.1c4.5,0,8.3-1,11.4-3.1c3.6-2.4,5.4-5.7,5.4-9.9
			c0-4.6-1.8-8-5.3-10.3C741.8,638.4,737.9,637.4,733.1,637.4z"/>
		<path class="st0" d="M923.2,664.9v-5.6c-2.6,4.1-7.5,6.2-14.9,6.2c-4.2,0-7.7-0.7-10.4-2.1c-3.4-1.8-5.1-4.6-5.1-8.4v-18.7h2.6
			V655c0,3.2,1.4,5.5,4.3,7c2.2,1.1,5.1,1.7,8.7,1.7c4.4,0,7.8-0.9,10.4-2.6c3-2,4.5-5.1,4.5-9.1v-15.5h2.6v28.5H923.2z"/>
		<path class="st0" d="M1093.3,663.7c-3,1.2-6.4,1.9-10.2,1.9c-5.3,0-9.7-1.1-13.2-3.2c-4.2-2.5-6.3-6.3-6.3-11.2
			c0-5.3,2.1-9.3,6.4-12.1c3.6-2.3,8.2-3.5,13.9-3.5c3.5,0,6.7,0.6,9.4,1.7c3.4,1.4,5.7,3.7,6.8,6.8l-2.3,0.9c-1.7-5-6.3-7.5-14-7.5
			c-4.9,0-9,1-12.1,3.1c-3.7,2.4-5.5,5.9-5.5,10.5c0,4.3,1.8,7.5,5.4,9.8c3,1.8,6.8,2.7,11.4,2.7c3.4,0,6.4-0.6,9.1-1.7
			c3.3-1.4,5.3-3.5,6.1-6.5l2.4,0.8C1099.5,659.7,1097.1,662.2,1093.3,663.7z"/>
		<path class="st0" d="M1245.9,639.8v25.2h-2.3l-0.2-25.2h-7.8v-2h7.8V629h2.5v8.8h8v2H1245.9z"/>
		<path class="st0" d="M1391.7,630.4c-0.5,0-0.9-0.3-1.1-0.8v-4c0.4-0.5,0.7-0.8,1.1-0.8s0.9,0.3,1.5,0.8v4.2
			C1392.7,630.2,1392.2,630.4,1391.7,630.4z M1390.6,664.9v-28.8h2.6v28.8H1390.6z"/>
		<path class="st0" d="M1563.5,662.2c-3.5,2.3-8,3.4-13.4,3.4c-5.3,0-9.8-1.2-13.4-3.5c-4.1-2.7-6.2-6.5-6.2-11.5
			c0-5,2.1-8.9,6.4-11.6c3.6-2.3,8.1-3.4,13.4-3.4s9.8,1.1,13.3,3.4c4.2,2.7,6.3,6.6,6.3,11.6
			C1569.9,655.7,1567.8,659.5,1563.5,662.2z M1550.2,637.6c-4.7,0-8.6,1-11.7,2.9c-3.7,2.3-5.5,5.7-5.5,10.1c0,4.4,1.9,7.7,5.6,10.1
			c3.1,2,7,2.9,11.6,2.9c4.6,0,8.5-1,11.6-2.9c3.7-2.3,5.6-5.7,5.6-10.1c0-4.4-1.8-7.8-5.5-10.1
			C1558.8,638.6,1554.9,637.6,1550.2,637.6z"/>
		<path class="st0" d="M1737.7,664.9v-18.8c0-3-1.5-5.3-4.4-6.8c-2.3-1.2-5.1-1.8-8.5-1.8c-4.1,0-7.4,0.9-10.2,2.6
			c-3.2,2-4.8,4.9-4.8,8.7v16h-2.6v-28.5h2.6v5.6c2.4-4.2,7.4-6.3,14.9-6.3c4,0,7.4,0.7,10.2,2c3.6,1.7,5.4,4.3,5.4,7.9v19.4H1737.7
			z"/>
	</g>
	<rect x="206.5" y="507.8" class="st0" width="7" height="79.5"/>
	<rect x="293.8" y="507.8" class="st0" width="7" height="79.5"/>
	<rect x="838.5" y="194.3" class="st0" width="9" height="243"/>
	<rect x="981" y="194.3" class="st0" width="9" height="243"/>
	<rect x="1123.5" y="194.3" class="st0" width="9" height="243"/>
	<rect x="250" y="507.8" class="st0" width="7" height="79.5"/>
	<rect x="838.5" y="719.3" class="st0" width="9" height="121.5"/>
	<rect x="985.5" y="719.3" class="st0" width="9" height="121.5"/>
	<rect x="1123.5" y="719.3" class="st0" width="9" height="121.5"/>
</g>
<g>
</g>
<g>
</g>
<g>
</g>
<g>
</g>
<g>
</g>
<g>
</g>
<g>
</g>
<g>
</g>
<g>
</g>
<g>
</g>
<g>
</g>
<g>
</g>
<g>
</g>
<g>
</g>
<g>
</g>
</svg>
